<svg aria-hidden="true" style="position: absolute; width: 0; height: 0; overflow: hidden;" version="1.1" xmlns="http://www.w3.org/2000/svg" xmlns:xlink="http://www.w3.org/1999/xlink">
<defs>
<symbol id="icon-dollar-sign" viewBox="0 0 24 24">
<path d="M11 11h-1.5c-0.691 0-1.314-0.279-1.768-0.732s-0.732-1.077-0.732-1.768 0.279-1.314 0.732-1.768 1.077-0.732 1.768-0.732h1.5zM13 13h1.5c0.691 0 1.314 0.279 1.768 0.732s0.732 1.077 0.732 1.768-0.279 1.314-0.732 1.768-1.077 0.732-1.768 0.732h-1.5zM17 4h-4v-3c0-0.552-0.448-1-1-1s-1 0.448-1 1v3h-1.5c-1.242 0-2.369 0.505-3.182 1.318s-1.318 1.94-1.318 3.182 0.505 2.369 1.318 3.182 1.94 1.318 3.182 1.318h1.5v5h-5c-0.552 0-1 0.448-1 1s0.448 1 1 1h5v3c0 0.552 0.448 1 1 1s1-0.448 1-1v-3h1.5c1.242 0 2.369-0.505 3.182-1.318s1.318-1.94 1.318-3.182-0.505-2.369-1.318-3.182-1.94-1.318-3.182-1.318h-1.5v-5h4c0.552 0 1-0.448 1-1s-0.448-1-1-1z"></path>
</symbol>
<symbol id="icon-trash-can" viewBox="0 0 32 32">
<path d="M21 6h4v1h-17v-1h4v-1c0-1.112 0.894-2 1.997-2h5.005c1.102 0 1.997 0.895 1.997 2v1zM8 8h17v18.999c0 1.658-1.343 3.001-3 3.001h-11c-1.666 0-3-1.344-3-3.001v-18.999zM12 11v16h1v-16h-1zM16 11v16h1v-16h-1zM20 11v16h1v-16h-1zM14.003 4c-0.554 0-1.003 0.444-1.003 1v1h7v-1c0-0.552-0.438-1-1.003-1h-4.994z"></path>
</symbol>
<symbol id="icon-phone" viewBox="0 0 32 32">
<path d="M22 20c-2 2-2 4-4 4s-4-2-6-4-4-4-4-6 2-2 4-4-4-8-6-8-6 6-6 6c0 4 4.109 12.109 8 16s12 8 16 8c0 0 6-4 6-6s-6-8-8-6z"></path>
</symbol>
<symbol id="icon-display" viewBox="0 0 32 32">
<path d="M0 2v20h32v-20h-32zM30 20h-28v-16h28v16zM21 24h-10l-1 4-2 2h16l-2-2z"></path>
</symbol>
<symbol id="icon-user" viewBox="0 0 32 32">
<path d="M18 22.082v-1.649c2.203-1.241 4-4.337 4-7.432 0-4.971 0-9-6-9s-6 4.029-6 9c0 3.096 1.797 6.191 4 7.432v1.649c-6.784 0.555-12 3.888-12 7.918h28c0-4.030-5.216-7.364-12-7.918z"></path>
</symbol>
<symbol id="icon-cog" viewBox="0 0 32 32">
<path d="M29.181 19.070c-1.679-2.908-0.669-6.634 2.255-8.328l-3.145-5.447c-0.898 0.527-1.943 0.829-3.058 0.829-3.361 0-6.085-2.742-6.085-6.125h-6.289c0.008 1.044-0.252 2.103-0.811 3.070-1.679 2.908-5.411 3.897-8.339 2.211l-3.144 5.447c0.905 0.515 1.689 1.268 2.246 2.234 1.676 2.903 0.672 6.623-2.241 8.319l3.145 5.447c0.895-0.522 1.935-0.82 3.044-0.82 3.35 0 6.067 2.725 6.084 6.092h6.289c-0.003-1.034 0.259-2.080 0.811-3.038 1.676-2.903 5.399-3.894 8.325-2.219l3.145-5.447c-0.899-0.515-1.678-1.266-2.232-2.226zM16 22.479c-3.578 0-6.479-2.901-6.479-6.479s2.901-6.479 6.479-6.479c3.578 0 6.479 2.901 6.479 6.479s-2.901 6.479-6.479 6.479z"></path>
</symbol>
<symbol id="icon-exit" viewBox="0 0 32 32">
<path d="M24 20v-4h-10v-4h10v-4l6 6zM22 18v8h-10v6l-12-6v-26h22v10h-2v-8h-16l8 4v18h8v-6z"></path>
</symbol>


<symbol id="icon-dollar" viewBox="0 0 30 20">
<path d="M6.016 16.328v-1.464c1.232-.08 2.22-.444 2.964-1.092.744-.648 1.116-1.508 1.116-2.58v-.144c0-.992-.348-1.772-1.044-2.34-.696-.568-1.708-.932-3.036-1.092V4.184c.56.144 1.012.4 1.356.768.344.368.516.816.516 1.344v.288h1.824v-.432c0-.448-.088-.876-.264-1.284a3.783 3.783 0 00-.744-1.116A4.251 4.251 0 007.54 2.9a5.324 5.324 0 00-1.524-.492V.872H4.288V2.36a5.532 5.532 0 00-1.416.324c-.448.168-.84.392-1.176.672-.336.28-.604.616-.804 1.008-.2.392-.3.844-.3 1.356v.144c0 .96.316 1.708.948 2.244.632.536 1.548.884 2.748 1.044v3.912c-.704-.16-1.248-.472-1.632-.936-.384-.464-.576-1.08-.576-1.848v-.288H.256v.576c0 .464.08.924.24 1.38.16.456.404.88.732 1.272.328.392.744.728 1.248 1.008s1.108.476 1.812.588v1.512h1.728zM4.288 7.424c-.688-.128-1.164-.332-1.428-.612-.264-.28-.396-.644-.396-1.092 0-.464.176-.832.528-1.104.352-.272.784-.448 1.296-.528v3.336zm1.728 5.712V9.344c.768.128 1.328.328 1.68.6.352.272.528.688.528 1.248 0 .544-.196.984-.588 1.32-.392.336-.932.544-1.62.624z"></path>
</symbol>
<symbol id="icon-person" viewBox="0 0 30 20">
<path d="M9.573 7.729c.406 0 .784.07 1.126.209.342.14.639.33.881.569.232.227.438.503.614.82a5.1 5.1 0 01.407.949c.097.312.178.654.242 1.016.062.359.105.699.126 1.011.02.307.031.624.031.945 0 .836-.259 1.512-.768 2.01-.504.492-1.17.742-1.98.742H2.748c-.81 0-1.477-.25-1.98-.742C.259 14.76 0 14.084 0 13.248c0-.322.01-.64.032-.945.02-.312.063-.652.126-1.01.063-.363.144-.705.242-1.017.1-.323.238-.643.407-.948.176-.318.382-.594.613-.821.243-.238.54-.43.882-.57.342-.138.72-.208 1.125-.208.16 0 .313.067.61.265.183.123.397.264.636.421.204.134.48.259.822.372.333.11.671.167 1.005.167a3.19 3.19 0 001.006-.167c.341-.113.618-.238.822-.372l.636-.42c.296-.2.45-.266.61-.266zM6.598 0C7.63 0 8.522.38 9.252 1.129s1.1 1.666 1.1 2.724c0 1.06-.37 1.976-1.1 2.725-.73.75-1.623 1.13-2.654 1.13-1.03 0-1.924-.38-2.653-1.13-.73-.749-1.1-1.666-1.1-2.725 0-1.058.37-1.975 1.1-2.724C4.675.379 5.567 0 6.598 0z"></path>
</symbol>

</defs>
</svg>
